<?xml version="1.0" encoding="UTF-8"?>
<svg width="18px" height="16px" viewBox="0 0 18 16" version="1.1" xmlns="http://www.w3.org/2000/svg" xmlns:xlink="http://www.w3.org/1999/xlink">
    <title>Collateral</title>
    <g id="重置" stroke="none" stroke-width="1" fill="none" fill-rule="evenodd">
        <g id="抵押-暗/状态" transform="translate(-1229.000000, -762.000000)" fill="#FF257B" fill-rule="nonzero">
            <g id="Collateral" transform="translate(1229.000000, 762.000000)">
                <path d="M4.92767293,1.51522923 C4.88418857,1.53505511 4.84137336,1.55636168 4.79929997,1.57911278 C4.66472129,1.64904088 4.55498369,1.72763836 4.46803074,1.8201734 C4.27650861,2.01943982 4.20819104,2.26732131 4.21750873,2.61930936 L4.21750873,6.525652 L0.817827165,7.82032915 C0.61906199,7.88184665 0.438932197,7.98830076 0.299185077,8.12869301 C0.105588299,8.31400338 -0.00931769112,8.55900125 0.00103733234,8.86971266 L0.00103733234,11.2929069 L0,12.9185364 C0,13.5404953 0.118017952,13.6761369 0.661501134,13.9726705 L4.11086491,15.8201548 C4.6160582,16.0120458 4.83449607,16.1035272 5.38522228,15.8201548 L5.55707172,15.7302446 L8.67412896,14.096223 L8.67724092,14.0935982 L8.67931557,14.092027 L8.68655861,14.0872764 L8.69380166,14.0830618 L8.70208201,14.0777937 L8.70828774,14.0741337 L8.7113815,14.072544 L8.71864275,14.0683479 L8.72279203,14.0662591 L8.7269413,14.0641519 L8.73523987,14.0599558 L8.73938917,14.057331 L8.74455756,14.0552237 L8.75389345,14.0504916 L8.75908006,14.0484028 L8.76941685,14.0436522 L8.77564077,14.0415634 L8.7870149,14.0362952 L8.79220151,14.034188 L8.79840724,14.0320992 L8.80463116,14.0294559 L8.81083689,14.0273486 L8.81807994,14.0252598 L8.82428565,14.023171 L8.83773442,14.0189565 L8.84497747,14.0163316 L8.85222051,14.0147604 L8.85946355,14.0126531 L8.8667066,14.0105459 L8.87394964,14.0084571 L8.88223002,14.0068859 L8.89775342,14.0032074 L8.9060338,14.0016177 L8.91431416,14.0000465 L8.92259452,13.9984753 L8.93087489,13.9974032 L8.93915525,13.995832 L8.94743563,13.9947783 L8.9567533,13.9937062 L8.96503368,13.9926526 L8.97435135,13.9915989 L8.98366904,13.9910813 L8.99298673,13.9900277 L9.00230442,13.9910813 L9.01164031,13.9915989 L9.01992067,13.9926526 L9.02923836,13.9937062 L9.03751872,13.9947783 L9.04683641,13.995832 L9.05511677,13.9974032 L9.06339714,13.9984753 L9.0716775,14.0000465 L9.07995786,14.0016177 L9.08823824,14.0032074 L9.09548128,14.0047786 L9.10376164,14.0068859 L9.11100469,14.0084571 L9.11928506,14.0105459 L9.13375296,14.0147604 L9.13997688,14.0163316 L9.14721992,14.0189565 L9.15444476,14.0210637 L9.1616878,14.023171 L9.16789353,14.0252598 L9.1813605,14.0294559 L9.18652891,14.0320992 L9.19273463,14.034188 L9.20518247,14.0389201 L9.21035089,14.0415634 L9.21551928,14.0436522 L9.22174321,14.0457595 L9.2269116,14.0484028 L9.2362293,14.0531349 L9.24139771,14.0552237 L9.25071538,14.0599558 L9.25901395,14.0641519 L9.26731252,14.0683479 L9.27457376,14.072544 L9.28079768,14.0762224 L9.28389145,14.0777937 L9.29217181,14.0830618 L9.29528377,14.0846331 L9.29941485,14.0872764 L9.30769523,14.0930806 L12.4289199,15.7302446 L12.6007694,15.8201548 C13.1504583,16.1035272 13.3699335,16.0120458 13.8751086,15.8201548 L17.2623605,14.0063128 C17.7230218,13.757618 17.9601133,13.6409048 17.9828797,13.0731065 C18.0201504,12.5231644 17.9849543,11.8559731 17.9849543,11.2928884 L17.9849543,8.86971266 C17.9952912,8.55898275 17.8803851,8.31400336 17.6857875,8.12867451 C17.5460222,7.98828227 17.3669297,7.88182815 17.1671272,7.82031066 L13.7685011,6.73810323 L13.7674456,2.61929088 C13.7778006,2.26730283 13.7094648,2.01940284 13.5179609,1.82015492 C13.431008,1.72761988 13.3202331,1.64902241 13.1866917,1.57909431 C13.1069818,1.53624648 13.0355341,1.50574652 12.9527304,1.47315777 L9.79842063,0.229498747 C9.56136559,0.135651293 9.25076998,-0.00130278592 8.99300493,-9.7373591e-05 C8.73522168,-0.00132128331 8.42464426,0.135651275 8.18758922,0.229498747 L4.92767293,1.51522923 Z M4.35807103,7.15104967 L8.22612252,9.04920904 L4.49945854,10.9473684 L0.49749033,8.71373564 L4.35807103,7.15104967 Z M13.7472049,7.27965181 L17.1916244,8.43433463 L13.1313328,10.4219603 L9.59757511,9.04577466 L13.7472049,7.27965181 Z M9.35692833,4.71123389 L13.0909091,3.00353478 L13.0909091,6.86999897 L9.35692833,8.4992114 L9.35692833,4.71123389 Z M8.2218885,9.81562977 L8.2218885,13.558904 L4.64336424,15.3860885 L4.64336424,11.6669448 L8.2218885,9.81562977 Z M17.3497853,9.10662653 L17.3497853,13.1814746 L13.2877995,15.3157081 L13.2877995,11.0272074 L17.3497853,9.10662653 Z M9,0.585605296 L13.0153832,2.23166427 L9,4.0478649 L4.91569462,2.23166427 L9,0.585605296 Z" id="形状"></path>
            </g>
        </g>
    </g>
</svg>