<?xml version="1.0" encoding="UTF-8"?>
<svg width="59px" height="54px" viewBox="0 0 59 54" version="1.1" xmlns="http://www.w3.org/2000/svg" xmlns:xlink="http://www.w3.org/1999/xlink">
    <title>小狐狸</title>
    <g id="重置" stroke="none" stroke-width="1" fill="none" fill-rule="evenodd">
        <g id="抵押-暗/状态" transform="translate(-744.000000, -684.000000)" fill-rule="nonzero">
            <g id="小狐狸" transform="translate(744.948186, 684.000000)">
                <polygon id="矩形" stroke="#BFAC9C" fill="#BFAC9C" points="41.3391874 44 41.6438141 48.1793813 34.6710622 53 23.2945632 53 16.6694562 48.488059 16.6438141 44.058254"></polygon>
                <path d="M17.7717329,39 L40.515908,39 C40.5865485,39 40.6438141,39.0577019 40.6438141,39.1288809 L40.2731454,46.3843754 C40.2709091,46.4281293 40.2467664,46.467742 40.2090502,46.4895413 L34.1354178,50 L33.528228,49.6971112 L25.5660472,49.6971112 L24.6623066,50 L18.5161829,46.0321932 C18.4840364,46.0114401 18.4627711,45.9773024 18.4581987,45.9391097 L17.6447474,39.1443158 C17.6362875,39.0736491 17.6862826,39.009452 17.7564147,39.0009276 C17.7614978,39.0003097 17.7666131,39 17.7717329,39 Z" id="矩形" fill="#D5BFB2"></path>
                <path d="M18.6376607,38 L38.4594998,38 C38.5226528,38 38.5760113,38.0513218 38.5841991,38.1199394 L39.6438141,47 L34.663137,43.9864994 L23.4233469,44.154578 L17.6438141,46.9279592 L18.5126288,38.1229921 C18.5195326,38.0530257 18.5734376,38 18.6376607,38 Z" id="矩形" fill="#E27624"></path>
                <path d="M24.4046466,43.0626631 L25.0904104,44.1814243 L28.6438141,44.1814243 L28.6438141,49.190225 C28.6438141,49.2561031 28.5928425,49.3103988 28.5271754,49.3178192 L28.5088079,49.3186509 L28.5088079,49.3186509 L24.8540171,49.1586369 L23.7520193,50 L22.7059749,49.3652347 C22.6647317,49.3402073 22.6409579,49.2951572 22.6440893,49.2479647 L22.9780243,44.2153116 L24.1982398,43.0372755 C24.2500016,42.9873029 24.3336021,42.9876161 24.3849669,43.037975 C24.3925348,43.0453947 24.3991436,43.0536854 24.4046466,43.0626631 Z" id="矩形" fill="#161616"></path>
                <path d="M32.8829816,43.0626631 L32.1972178,44.1814243 L28.6438141,44.1814243 L28.6438141,49.190225 C28.6438141,49.2561031 28.6947858,49.3103988 28.7604528,49.3178192 L28.7788205,49.3186509 L28.7788205,49.3186509 L32.4336111,49.1586369 L33.5356088,50 L34.5816533,49.3652347 C34.6228965,49.3402073 34.6466703,49.2951572 34.6435389,49.2479647 L34.3096039,44.2153116 L33.0893884,43.0372755 C33.0376266,42.9873029 32.9540261,42.9876161 32.9026613,43.037975 C32.8950933,43.0453947 32.8884846,43.0536854 32.8829816,43.0626631 Z" id="矩形备份-6" fill="#161616"></path>
                <path d="M21.2197841,8 L36.0135105,8 L54.1200637,27.551852 L53.1491798,28.4074218 L56.6373059,38.9132274 C56.6416165,38.92621 56.6438141,38.9398074 56.6438141,38.9534946 L56.6438141,40.5517616 L39.1041968,40.5533601 L38.3462253,41.2157366 L33.5629839,44.5792307 L32.5939855,43.5561694 L32.3395076,44.3122033 L32.0868055,44.8032828 L25.3136762,44.8032828 L24.9158086,44.4177366 L24.5740618,43.5561694 L23.7029126,44.5792307 L23.4750547,45 L22.8999698,44.5792307 L18.1452822,40.5517616 L0.64381409,40.5517616 L0.64381409,38.9542319 C0.64381409,38.940063 0.646169146,38.9259938 0.650781926,38.9126057 L4.34472419,28.1913446 L4.03947236,27.4249429 L21.2197841,8 Z" id="矩形" fill="#F5841E"></path>
                <polygon id="矩形" fill="#D86D27" points="23.9784421 29 24.6438141 30 24.6438141 36 22.6438141 35.16"></polygon>
                <polygon id="矩形备份-10" fill="#D86D27" points="33.3361269 29.0338136 32.6438141 30 32.6841862 36 34.6438141 35.1647339"></polygon>
                <path d="M19.7713397,32 L22.516321,32 C22.5867335,32 22.6438141,32.0588437 22.6438141,32.1314311 C22.6438141,32.1375709 22.6433968,32.1437031 22.6425652,32.1497827 L22.4049521,33.886904 C22.3951204,33.9587804 22.3306289,34.0088314 22.2609061,33.998696 C22.25465,33.9977867 22.2484682,33.996399 22.2424116,33.9945448 L20.0224284,33.3148864 C19.9804301,33.3020285 19.9477779,33.2678409 19.9359586,33.2243508 L19.6485736,32.166888 C19.629578,32.096992 19.6691433,32.0244554 19.7369452,32.0048731 C19.7481409,32.0016396 19.7597129,32 19.7713397,32 Z" id="矩形" fill="#263647"></path>
                <path d="M37.5162885,32 L34.7713072,32 C34.7008947,32 34.6438141,32.0588437 34.6438141,32.1314311 C34.6438141,32.1375709 34.6442314,32.1437031 34.645063,32.1497827 L34.882676,33.886904 C34.8925076,33.9587804 34.9569993,34.0088314 35.0267219,33.998696 C35.032978,33.9977867 35.0391599,33.996399 35.0452165,33.9945448 L37.2651998,33.3148864 C37.307198,33.3020285 37.3398503,33.2678409 37.3516695,33.2243508 L37.6390546,32.166888 C37.6580501,32.096992 37.6184848,32.0244554 37.550683,32.0048731 C37.5394873,32.0016396 37.5279153,32 37.5162885,32 Z" id="矩形备份-9" fill="#263647"></path>
                <path d="M14.6438141,30 L17.9376143,28 C17.9954222,28 18.0445721,28.0436302 18.0533134,28.1027058 L18.6438141,34.0934335 L17.300504,34.533308 C17.2518591,34.5492371 17.2188019,34.5959104 17.2188019,34.6486628 L17.2188019,36 L14.6438141,30 Z" id="矩形" fill="#DD7025"></path>
                <path d="M42.6438141,30 L39.3500137,28 C39.292206,28 39.2430561,28.0436302 39.2343147,28.1027058 L38.6438141,34.0934335 L39.9871241,34.533308 C40.035769,34.5492371 40.0688263,34.5959104 40.0688263,34.6486628 L40.0688263,36 L42.6438141,30 Z" id="矩形备份-8" fill="#DD7025"></path>
                <path d="M15.6438141,28.3443819 L16.5368549,28 L22.8047272,28 L24.544199,28.3451016 C24.60564,28.3572911 24.647684,28.4167134 24.6435317,28.4816979 L24.641503,28.4981043 L23.6475118,33.8950057 C23.6362763,33.9560096 23.5861796,34 23.5279435,34 L22.8047272,34 L21.9567903,32.3970424 L20.2859467,33.2843157 L18.8376657,32.8164243 C18.818385,32.8101953 18.8008514,32.7989607 18.7866339,32.7837256 L15.6438141,28.3443819 Z" id="矩形" fill="#CC6228"></path>
                <path d="M41.6438141,28.3443819 L40.7563406,28 L34.5337773,28 L32.6438141,28.3691192 L33.6956644,33.8959656 C33.7071882,33.9565168 33.7567776,34 33.814308,34 L34.5337773,34 L35.3764281,32.3970424 L37.0368553,33.2843157 L38.4761076,32.8164243 C38.4952681,32.8101953 38.5126924,32.7989607 38.5268213,32.7837256 L41.6438141,28.3443819 Z" id="矩形备份-7" fill="#CC6228"></path>
                <polygon id="矩形" fill="#E27624" points="0.64381409 40.5517616 11.1991305 40 16.6438141 48.1387173 16.5221394 48.7670517 4.46386465 52"></polygon>
                <polygon id="矩形备份-4" fill="#E27624" points="56.6438141 40.5517616 46.0884977 40 40.6438141 48.1387173 40.7654888 48.7670517 52.8237635 52"></polygon>
                <polygon id="矩形" fill="#CC6228" points="10.6438141 40 17.8636409 40 18.6438141 40.6844883 17.8636409 46.482482 17.6193884 47.3374484 16.7671901 47.0536202 15.8830495 48"></polygon>
                <polygon id="矩形备份-5" fill="#CC6228" points="46.6438141 40 39.4239871 40 38.6438141 40.6844883 39.4239871 46.482482 39.6682398 47.3374484 40.5204381 47.0536202 41.4045787 48"></polygon>
                <polygon id="矩形" fill="#E27624" points="17.2163813 25.2993718 24.6438141 18.4789537 24.6438141 30 22.794881 29.6292705 15.5723176 29.6292705 14.6438141 30"></polygon>
                <polygon id="矩形备份-3" fill="#E27624" points="41.0587397 25.2273043 33.6438141 18.4789537 32.6438141 30 34.4927472 29.6292705 41.7153106 29.6292705 42.6438141 30"></polygon>
                <polygon id="矩形" fill="#E27727" points="2.64381409 0 20.9357889 7.49999999 22.6438141 15"></polygon>
                <polygon id="矩形备份-2" fill="#E27727" points="54.6438141 0 36.3518393 7.49999999 34.6438141 15"></polygon>
                <polygon id="矩形" fill="#763E1B" points="0.64381409 9.43362389 2.64381409 -3.12638804e-13 23.6273307 14.6866204 24.6438141 18.4789537 18.3037025 24.2880982 17.5219249 22.9802313 4.56385754 26.8877754 2.40120026 24.2880982 3.03474786 23.7524924 3.03474786 22.9802313 2.10790904 22.6683612 1.87473965 21.7320894 2.63263537 21.326569 2.40120026 20.3654825 1.40846718 20.039549 1.40846718 19.2903319 2.40120026 18.339881"></polygon>
                <polygon id="矩形备份" fill="#763E1B" points="57.6438141 9.43362389 54.6438141 -3.12638804e-13 34.6602973 14.6866204 33.6438141 18.4789537 39.9839257 24.2880982 40.7657033 22.9802313 53.6060977 27 55.8864279 24.2880982 55.2528803 23.7524924 55.2528803 22.9802313 56.1797192 22.6683612 56.4128884 21.7320894 55.6549927 21.326569 55.8864279 20.3654825 56.879161 20.039549 56.879161 19.2903319 55.8864279 18.339881"></polygon>
            </g>
        </g>
    </g>
</svg>