<?xml version="1.0" encoding="UTF-8"?>
<svg width="35px" height="33px" viewBox="0 0 35 33" version="1.1" xmlns="http://www.w3.org/2000/svg" xmlns:xlink="http://www.w3.org/1999/xlink">
    <title>chart-trend-full</title>
    <g id="重置" stroke="none" stroke-width="1" fill="none" fill-rule="evenodd">
        <g id="抵押-暗-列表" transform="translate(-732.000000, -320.000000)" fill="#FFFFFF" fill-rule="nonzero">
            <g id="编组-3" transform="translate(464.000000, 306.000000)">
                <g id="chart-trend-full" transform="translate(285.500000, 30.500000) scale(-1, 1) translate(-285.500000, -30.500000) translate(268.000000, 14.000000)">
                    <path d="M20.4889649,19.5729096 L13.1340576,3.71771627 C13.0928074,3.62981789 12.989682,3.5963328 12.9071816,3.64237481 L6.68252931,6.99507012 C6.5876539,7.04529776 6.48040343,7.07459722 6.37315296,7.07459722 L0.330001448,7.07459722 C0.148500651,7.07459722 0,6.92391429 0,6.73974626 L0,4.73064045 C0,4.54647242 0.148500651,4.39578948 0.330001448,4.39578948 L5.84102562,4.39578948 C5.86990075,4.39578948 5.89465086,4.38741821 5.91940097,4.3748613 L13.9631862,0.0385412673 C14.128187,-0.0493571116 14.3344379,0.0176130819 14.4169382,0.19340984 L21.4707192,15.3998294 C21.5160944,15.5002847 21.648095,15.5295842 21.7305953,15.4542427 L28.7596262,9.13811631 C28.9328769,8.98324774 29.2010031,9.05021793 29.2876285,9.26787106 L32.7897688,18.3297754 C32.8557691,18.5013865 32.7732688,18.6981114 32.604143,18.7650816 L30.7602599,19.4975681 C30.5911342,19.5645383 30.3972583,19.4808256 30.331258,19.3092145 L28.1202483,13.5916342 C28.0789982,13.4828076 27.9428726,13.4493225 27.8562472,13.5288496 L21.0045921,19.6817362 C20.8395914,19.8282335 20.5838403,19.7738202 20.4889649,19.5729096 L20.4889649,19.5729096 Z" id="路径"></path>
                    <path d="M35,32.9411765 L0.0183837725,32.9411765 L0,31.4996884 L0,11.4990419 C0,11.3999396 0.0787430544,11.3188559 0.174984565,11.3188559 L9.62415109,11.3188559 C9.7203926,11.3188559 9.79913565,11.3999396 9.79913565,11.4990419 L9.79913565,32.9411765 L12.5988887,32.9411765 L12.5988887,11.3413791 C12.5988887,10.9629885 13.0888455,10.841363 13.2594554,11.1747071 L20.1013519,24.6255923 C20.2238411,24.8643388 20.4600703,25.0129923 20.7225471,25.0129923 L22.2230398,25.0129923 C22.3192813,25.0129923 22.3980244,25.094076 22.3980244,25.1931783 L22.3980244,32.9411765 L25.1977774,32.9411765 L25.1977774,24.4409017 C25.1977774,24.346304 25.2327743,24.2517064 25.2983935,24.1841366 L27.8531682,21.553421 C27.9275366,21.4768419 28.0544004,21.4858512 28.115645,21.5714396 L29.9879799,24.1435948 C30.0535991,24.2336878 30.1585898,24.2877436 30.2679552,24.2877436 L34.8175539,24.2877436 C34.9137954,24.2877436 34.9925384,24.3688273 34.9925384,24.4679296 L34.9925384,31.4951838 L35,32.9411765 Z" id="路径"></path>
                </g>
            </g>
        </g>
    </g>
</svg>