<?xml version="1.0" encoding="UTF-8"?>
<svg width="34px" height="33px" viewBox="0 0 34 33" version="1.1" xmlns="http://www.w3.org/2000/svg" xmlns:xlink="http://www.w3.org/1999/xlink">
    <title>icon-verify</title>
    <g id="重置" stroke="none" stroke-width="1" fill="none" fill-rule="evenodd">
        <g id="抵押-暗-列表" transform="translate(-1270.000000, -320.000000)" fill="#FFFFFF" fill-rule="nonzero">
            <g id="编组-3" transform="translate(464.000000, 306.000000)">
                <g id="icon-verify" transform="translate(806.000000, 14.000000)">
                    <path d="M0.701461573,29.9412255 L33.5139616,29.9412255 L33.5139616,32.9411765 L0.701461573,32.9411765 L0.701461573,29.9412255 Z M33.5139616,27.4633248 L0.701461573,27.4633248 L0.701461573,22.2722331 C0.701461573,20.5149088 2.29565767,19.0884615 4.25964151,19.0884615 L10.9158211,19.0884615 C11.21576,18.7097913 11.4006539,18.268622 11.4458502,17.8053943 C11.4088714,16.4193875 10.8377548,15.0922033 9.82700158,14.0407499 C8.34785057,12.3385718 7.49733873,10.2613998 7.39872867,8.10702324 C7.38640241,3.64386084 11.4211977,0.0115672255 16.4133323,0.000537993818 C16.6434225,0.000537993818 16.8776214,0.00789081491 17.1077116,0.0225964571 C22.0834112,-0.308280492 26.4181455,3.03357669 26.7879332,7.48570986 C26.8043682,7.66585398 26.8125857,7.8459981 26.8125857,8.02614221 C26.7221932,10.1878716 25.8716813,12.2723964 24.3843128,13.9819273 C23.3817771,15.0260279 22.8106605,16.3495357 22.7654642,17.7245132 C22.8147692,18.187741 22.9996631,18.6289102 23.2954933,19.0075805 L29.9516729,19.0075805 C31.9156567,19.0075805 33.5098528,20.4340278 33.5098528,22.191352 L33.5139616,27.4633248 Z M3.24067081,25.0846871 L30.9706436,25.0846871 L30.9706436,22.2722331 C30.9706436,21.8273874 30.5679858,21.4670992 30.0708267,21.4670992 L22.0299974,21.4670992 L21.6355572,21.0553412 C20.7850453,20.2024139 20.259125,19.1325785 20.1317536,17.9965676 C20.1071011,16.0921869 20.8343504,14.239276 22.1902388,12.7650354 C23.3694509,11.4341748 24.0638301,9.80920133 24.1788752,8.11437607 C24.1254614,4.952663 21.2205731,2.42329254 17.6870457,2.47108588 C17.5391306,2.47476229 17.3953243,2.4784387 17.2474092,2.48946793 C13.7303168,2.15859098 10.5830121,4.43796552 10.2091156,7.58497295 C10.1885718,7.76144065 10.1762456,7.93790836 10.1762456,8.11437607 C10.2789644,9.81287774 10.9733436,11.4378512 12.1648819,12.7650354 C13.5125529,14.239276 14.2315846,16.0921869 14.1987146,17.9965676 C14.0179295,19.1583133 13.4180515,20.2318252 12.4894734,21.0553412 L12.0950331,21.4670992 L4.25964151,21.4670992 C3.76248242,21.4670992 3.35982465,21.8273874 3.35982465,22.2722331 L3.24067081,25.0846871 Z" id="形状"></path>
                </g>
            </g>
        </g>
    </g>
</svg>