<?xml version="1.0" encoding="UTF-8"?>
<svg width="36px" height="33px" viewBox="0 0 36 33" version="1.1" xmlns="http://www.w3.org/2000/svg" xmlns:xlink="http://www.w3.org/1999/xlink">
    <title>tubiao_jinbi备份</title>
    <g id="重置" stroke="none" stroke-width="1" fill="none" fill-rule="evenodd">
        <g id="抵押-暗-列表" transform="translate(-478.000000, -322.000000)" fill="#FFFFFF" fill-rule="nonzero">
            <g id="编组-3" transform="translate(464.000000, 306.000000)">
                <g id="tubiao_jinbi备份" transform="translate(14.000000, 16.000000)">
                    <path d="M14.3404125,11.9314976 C18.7015164,11.9314976 23.2343169,11.0836346 25.9556452,9.46901788 L25.9556452,12.4117218 L28.4771438,12.4117218 L28.4771438,5.96583418 C28.4771438,2.09091351 21.1935298,0 14.3404125,0 C7.48729515,0 0.204131868,2.09091351 0.204131868,5.96606185 L0.204131868,23.5508523 C0.204131868,27.4257729 7.48761707,29.5165157 14.34067,29.5165157 L14.34067,27.2873463 C7.1441597,27.2873463 2.72563048,25.1109976 2.72563044,23.5507954 L2.72563044,18.26184 C5.44721628,19.876229 9.97975922,20.7243197 14.34067,20.7243197 L14.34067,18.4949796 C7.1441597,18.4949796 2.72563048,16.3186309 2.72563044,14.7582578 L2.72563044,9.46924558 C5.44676566,11.0836346 9.97911544,11.9314976 14.3404125,11.9314976 Z M14.3404125,2.22911244 C21.5371803,2.22911244 25.9556452,4.40568881 25.9556452,5.96583418 C25.9556452,7.52609337 21.5371804,9.70244206 14.3404125,9.70244206 C7.14409531,9.70244206 2.72537294,7.52609337 2.72537294,5.96583418 C2.72537294,4.40563192 7.1441597,2.22911244 14.3404125,2.22911244 Z M25.6407717,13.1499592 C19.3810921,13.1499592 16.1057898,15.279236 16.1057898,17.3821594 L16.1057898,28.6822563 C16.1057898,30.7852366 19.3810921,32.9142857 25.6407717,32.9142857 C31.8534553,32.9142857 35.1246374,30.8168265 35.1730497,28.7291574 L35.1755604,28.7291574 L35.1755604,17.3819317 C35.1753673,15.2790083 31.9005157,13.1499592 25.6407717,13.1499592 Z M25.6407717,15.3792993 C30.2679505,15.3792993 32.6540619,16.7829747 32.6540619,17.3821594 C32.6540619,17.9814009 30.2679505,19.385304 25.6407717,19.385304 C21.0132067,19.385304 18.6270953,17.9814578 18.6270953,17.3821594 C18.6270953,16.7829747 21.0136573,15.3792993 25.6407717,15.3792993 L25.6407717,15.3792993 Z M25.6407717,30.6845472 C21.0132067,30.6845472 18.6270953,29.2807009 18.6270953,28.6816871 L18.6270953,25.9841895 C20.2271496,26.7523092 22.5750203,27.263725 25.6407717,27.263725 C28.70633,27.263725 31.0542651,26.7521385 32.6540619,25.9841895 L32.6540619,28.6816871 C32.6540619,29.2807009 30.2679505,30.6845472 25.6407717,30.6845472 Z M25.6407717,25.0346125 C21.0132067,25.0346125 18.6270953,23.6309371 18.6270953,23.0319232 L18.6270953,20.3342549 C20.2271496,21.1024315 22.5750203,21.614018 25.6407717,21.614018 C28.70633,21.614018 31.0542651,21.10283 32.6540619,20.3346533 L32.6540619,23.0323217 C32.6540619,23.6309371 30.2679505,25.0347833 25.6407717,25.0347833 L25.6407717,25.0346125 L25.6407717,25.0346125 Z" id="形状"></path>
                </g>
            </g>
        </g>
    </g>
</svg>