<?xml version="1.0" encoding="UTF-8"?>
<svg width="36px" height="31px" viewBox="0 0 36 31" version="1.1" xmlns="http://www.w3.org/2000/svg" xmlns:xlink="http://www.w3.org/1999/xlink">
    <title>pool</title>
    <g id="重置" stroke="none" stroke-width="1" fill="none" fill-rule="evenodd">
        <g id="抵押-暗-列表" transform="translate(-971.000000, -323.000000)" stroke="#FFFFFF">
            <g id="编组-3" transform="translate(464.000000, 306.000000)">
                <g id="pool" transform="translate(508.000000, 19.000000)">
                    <path d="M33.1052632,0 L33.1052632,19.8947368 C33.1052632,23.5572568 30.4012987,26.5263158 27.0657895,26.5263158 L6.93421053,26.5263158 C3.59870131,26.5263158 0.894736842,23.5572568 0.894736842,19.8947368 L0.894736842,0" id="路径" stroke-width="3" stroke-linecap="round"></path>
                    <path d="M33.1052632,6.63157895 L33.1052632,8.28947368 C33.1052632,11.0363636 36.7687701,8.56514842 27.041061,11.883035 C17.3133518,15.2009216 15.7158763,3.97961066 6.69469251,6.63157895 C-2.32649127,9.28354724 0.894736842,11.0363636 0.894736842,8.28947368 L0.894736842,6.63157895 C3.57894737,4.86360009 6.26315789,3.97961066 8.94736842,3.97961066 C11.6315789,3.97961066 14.2331818,4.93838587 16.7521771,6.8559363 C19.6098627,9.24951298 22.2390321,10.4463013 24.6396853,10.4463013 C27.0403385,10.4463013 29.8621978,9.1747272 33.1052632,6.63157895 Z" id="路径" fill="#FFFFFF"></path>
                </g>
            </g>
        </g>
    </g>
</svg>