<?xml version="1.0" encoding="UTF-8"?>
<svg width="19px" height="16px" viewBox="0 0 19 16" version="1.1" xmlns="http://www.w3.org/2000/svg" xmlns:xlink="http://www.w3.org/1999/xlink">
    <title>qian备份</title>
    <g id="重置" stroke="none" stroke-width="1" fill="none" fill-rule="evenodd">
        <g id="抵押-暗-列表" transform="translate(-499.000000, -838.000000)" fill="#FF257B" fill-rule="nonzero">
            <g id="卡片" transform="translate(388.000000, 109.000000)">
                <g id="一年交易概况" transform="translate(50.000000, 318.000000)">
                    <g id="交易行为2" transform="translate(55.000000, 403.000000)">
                        <g id="qian备份" transform="translate(6.000000, 8.000000)">
                            <g id="tubiao_jinbi" transform="translate(0.900769, 0.000000)">
                                <path d="M6.97103385,5.80003355 C9.09101492,5.80003355 11.2944596,5.38787791 12.6173275,4.6029948 L12.6173275,6.03347589 L13.843056,6.03347589 L13.843056,2.90005828 C13.843056,1.01641629 10.3024103,0 6.97103385,0 C3.63965736,0 0.0992307692,1.01641629 0.0992307692,2.90016895 L0.0992307692,11.448331 C0.0992307692,13.3319729 3.63981385,14.3483062 6.97115904,14.3483062 L6.97115904,13.2646822 C3.47285541,13.2646822 1.32495926,12.206735 1.32495924,11.4483033 L1.32495924,8.87728334 C2.64795236,9.66205577 4.85127184,10.0743221 6.97115904,10.0743221 L6.97115904,8.99061506 C3.47285541,8.99061506 1.32495926,7.93266778 1.32495924,7.17415311 L1.32495924,4.60310549 C2.64773331,5.38787793 4.8509589,5.80003356 6.97103385,5.80003355 Z M6.97103385,1.08359633 C10.4694627,1.08359633 12.6173275,2.14165428 12.6173275,2.90005828 C12.6173275,3.65851761 10.4694627,4.71646489 6.97103385,4.71646489 C3.47282411,4.71646489 1.32483407,3.65851761 1.32483407,2.90005828 C1.32483407,2.14162663 3.47285541,1.08359633 6.97103385,1.08359633 Z M12.464264,6.39234126 C9.42136421,6.39234126 7.82920339,7.42740638 7.82920339,8.4496608 L7.82920339,13.9427635 C7.82920339,14.9650456 9.42136419,16 12.464264,16 C15.4843186,16 17.0744765,14.9804018 17.0980103,13.9655626 L17.0992308,13.9655626 L17.0992308,8.44955013 C17.0991369,7.4272957 15.5071951,6.39234126 12.464264,6.39234126 Z M12.464264,7.47604826 C14.7135871,7.47604826 15.8735023,8.1583905 15.8735023,8.4496608 C15.8735023,8.74095876 14.7135871,9.42341167 12.464264,9.42341167 C10.2147532,9.42341167 9.054838,8.74098643 9.054838,8.4496608 C9.054838,8.1583905 10.2149723,7.47604826 12.464264,7.47604826 L12.464264,7.47604826 Z M12.464264,14.9160993 C10.2147532,14.9160993 9.054838,14.2336741 9.054838,13.9424868 L9.054838,12.6312032 C9.83264216,13.0045948 10.9739682,13.2531997 12.464264,13.2531997 C13.954466,13.2531997 15.0958233,13.0045118 15.8735023,12.6312032 L15.8735023,13.9424868 C15.8735023,14.2336741 14.7135871,14.9160993 12.464264,14.9160993 Z M12.464264,12.1696033 C10.2147532,12.1696033 9.054838,11.4872611 9.054838,11.1960738 L9.054838,9.88470724 C9.83264216,10.2581264 10.9739682,10.5068143 12.464264,10.5068143 C13.954466,10.5068143 15.0958233,10.2583201 15.8735023,9.88490092 L15.8735023,11.1962675 C15.8735023,11.4872611 14.7135871,12.1696863 12.464264,12.1696863 L12.464264,12.1696033 L12.464264,12.1696033 Z" id="形状"></path>
                            </g>
                        </g>
                    </g>
                </g>
            </g>
        </g>
    </g>
</svg>