<?xml version="1.0" encoding="UTF-8"?>
<svg width="18px" height="16px" viewBox="0 0 18 16" version="1.1" xmlns="http://www.w3.org/2000/svg" xmlns:xlink="http://www.w3.org/1999/xlink">
    <title>wodeqianbao</title>
    <g id="重置" stroke="none" stroke-width="1" fill="none" fill-rule="evenodd">
        <g id="抵押-暗/状态" transform="translate(-1258.000000, -762.000000)" fill="#FF257B" fill-rule="nonzero">
            <g id="wodeqianbao" transform="translate(1258.000000, 762.000000)">
                <path d="M16.5897436,4 C16.8153846,4 17,4.15967742 17,4.35483871 L17,14.6451613 C17,14.8403226 16.8153846,15 16.5897436,15 L1.41025641,15 C1.18461538,15 1,14.8403226 1,14.6451613 L1,4.35483871 C1,4.15967742 1.18461538,4 1.41025641,4 L16.5897436,4 M16.4,3 L1.6,3 C0.716,3 0,3.62891892 0,4.40540541 L0,14.5945946 C0,15.3710811 0.716,16 1.6,16 L16.4,16 C17.284,16 18,15.3710811 18,14.5945946 L18,4.40540541 C18,3.62891892 17.28,3 16.4,3 Z" id="形状"></path>
                <path d="M0,4.64941176 L0,1.96705882 C0,0.883388235 0.824769874,0 1.83877266,0 L14.2680056,0 C15.2820084,0 16.1067782,0.883388235 16.1067782,1.96705882 L16.1067782,3.39764706 L15.0356485,3.39764706 L15.0356485,1.96705882 C15.0356485,1.47350588 14.692887,1.07294118 14.2680056,1.07294118 L1.8423431,1.07294118 C1.41746165,1.07294118 1.07470014,1.47350588 1.07470014,1.96705882 L1.07470014,4.64941176 L0,4.64941176 Z M17.36,12.16 L13.0254951,12.16 C11.3795258,12.16 10.0406137,10.8760471 10.0406137,9.29882353 C10.0406137,7.7216 11.3795258,6.43764706 13.0254951,6.43764706 L17.36,6.43764706 L17.36,7.51058824 L13.0254951,7.51058824 C11.9686471,7.51058824 11.1117434,8.31171765 11.1117434,9.29882353 C11.1117434,10.2859294 11.9722176,11.0870588 13.0254951,11.0870588 L17.36,11.0870588 L17.36,12.16 L17.36,12.16 Z" id="形状"></path>
            </g>
        </g>
    </g>
</svg>