<?xml version="1.0" encoding="UTF-8"?>
<svg width="19px" height="16px" viewBox="0 0 19 16" version="1.1" xmlns="http://www.w3.org/2000/svg" xmlns:xlink="http://www.w3.org/1999/xlink">
    <title>pool</title>
    <g id="重置" stroke="none" stroke-width="1" fill="none" fill-rule="evenodd">
        <g id="点击钱包" transform="translate(-915.000000, -36.000000)" stroke="#D5D7E4">
            <g id="导航" transform="translate(388.000000, 23.000000)">
                <g id="文案" transform="translate(123.000000, 12.000000)">
                    <g id="pool" transform="translate(405.000000, 1.000000)">
                        <g id="pool" transform="translate(0.000000, 1.000000)">
                            <path d="M17,0 L17,10.5 C17,12.4329966 15.5729076,14 13.8125,14 L3.1875,14 C1.42709236,14 0,12.4329966 0,10.5 L0,0" id="路径" stroke-width="2" stroke-linecap="round"></path>
                            <path d="M17,3.5 L17,4.375 C17,5.82474747 18.9465687,5.2488932 13.8125,7 C8.67843128,8.7511068 6.16101776,2.80649244 3.1875,4 C0.213982239,5.19350756 -7.16149152e-05,5.82474747 -7.16149152e-05,4.375 L-7.16149152e-05,3.5 C1.4166428,2.56690005 2.83333333,2.10035007 4.25,2.10035007 C5.66666667,2.10035007 7.03973486,2.60637032 8.36920457,3.61841082 C9.87742753,4.88168741 11.2650447,5.5133257 12.5320561,5.5133257 C13.7990675,5.5133257 15.2883822,4.84221713 17,3.5 Z" id="路径" fill="#D5D7E4"></path>
                        </g>
                    </g>
                </g>
            </g>
        </g>
    </g>
</svg>