<?xml version="1.0" encoding="UTF-8"?>
<svg width="17px" height="16px" viewBox="0 0 17 16" version="1.1" xmlns="http://www.w3.org/2000/svg" xmlns:xlink="http://www.w3.org/1999/xlink">
    <title>chart-trend-full</title>
    <g id="重置" stroke="none" stroke-width="1" fill="none" fill-rule="evenodd">
        <g id="点击钱包" transform="translate(-511.000000, -36.000000)" fill="#D5D7E4" fill-rule="nonzero">
            <g id="导航" transform="translate(388.000000, 23.000000)">
                <g id="文案" transform="translate(123.000000, 12.000000)">
                    <g id="lend" transform="translate(0.000000, 1.000000)">
                        <g id="chart-trend-full" transform="translate(8.500000, 8.000000) scale(-1, 1) translate(-8.500000, -8.000000) ">
                            <path d="M9.95178294,9.5068418 L6.37939941,1.8057479 C6.35936361,1.76305441 6.3092741,1.74679022 6.2692025,1.76915348 L3.24579995,3.39760549 C3.19971761,3.42200177 3.14762452,3.43623294 3.09553144,3.43623294 L0.160286417,3.43623294 C0.0721288878,3.43623294 0,3.36304408 0,3.27359104 L0,2.29773965 C0,2.2082866 0.0721288878,2.13509775 0.160286417,2.13509775 L2.83706959,2.13509775 C2.85109465,2.13509775 2.86311613,2.1310317 2.87513761,2.12493263 L6.78211904,0.0187200441 C6.86226224,-0.0239734542 6.96244126,0.00855492548 7.00251286,0.0939419222 L10.428635,7.47991714 C10.4506744,7.52870971 10.514789,7.54294088 10.5548606,7.50634645 L13.9689613,4.43851364 C14.0531116,4.36329176 14.1833444,4.39582014 14.2254195,4.50153737 L15.9264591,8.90303375 C15.9585164,8.98638772 15.9184448,9.08193984 15.836298,9.11446822 L14.9406977,9.47024737 C14.8585509,9.50277575 14.7643826,9.46211528 14.7323253,9.37876131 L13.6584063,6.60165089 C13.6383705,6.54879227 13.5722524,6.53252808 13.5301772,6.57115553 L10.2022305,9.55970042 C10.1220873,9.63085625 9.99786528,9.60442694 9.95178294,9.5068418 L9.95178294,9.5068418 Z" id="路径"></path>
                            <path d="M17,16 L0.00892926092,16 L0,15.2998487 L0,5.58524892 C0,5.53711351 0.0382466264,5.49773 0.0849925031,5.49773 L4.67458767,5.49773 C4.72133355,5.49773 4.75958017,5.53711351 4.75958017,5.58524892 L4.75958017,16 L6.11946022,16 L6.11946022,5.50866986 C6.11946022,5.32488014 6.35743923,5.26580487 6.44030692,5.42771487 L9.7635138,11.961002 C9.82300855,12.0769646 9.93774843,12.1491677 10.0652372,12.1491677 L10.7940479,12.1491677 C10.8407938,12.1491677 10.8790404,12.1885512 10.8790404,12.2366866 L10.8790404,16 L12.2389204,16 L12.2389204,11.8712951 C12.2389204,11.8253477 12.2559189,11.7794002 12.2877911,11.7465807 L13.5286817,10.4688045 C13.5648035,10.4316089 13.6264231,10.4359849 13.6561704,10.4775564 L14.5655902,11.7268889 C14.5974624,11.7706484 14.6484579,11.796904 14.7015782,11.796904 L16.9113833,11.796904 C16.9581292,11.796904 16.9963758,11.8362875 16.9963758,11.8844229 L16.9963758,15.2976607 L17,16 Z" id="路径"></path>
                        </g>
                    </g>
                </g>
            </g>
        </g>
    </g>
</svg>