<?xml version="1.0" encoding="UTF-8"?>
<svg width="17px" height="16px" viewBox="0 0 17 16" version="1.1" xmlns="http://www.w3.org/2000/svg" xmlns:xlink="http://www.w3.org/1999/xlink">
    <title>icon-verify</title>
    <g id="重置" stroke="none" stroke-width="1" fill="none" fill-rule="evenodd">
        <g id="点击钱包" transform="translate(-725.000000, -36.000000)" fill="#EAEAEA" fill-rule="nonzero">
            <g id="导航" transform="translate(388.000000, 23.000000)">
                <g id="文案" transform="translate(123.000000, 12.000000)">
                    <g id="icon-verify" transform="translate(214.000000, 1.000000)">
                        <path d="M0.826424193,14.5428809 L16.7639242,14.5428809 L16.7639242,16 L0.826424193,16 L0.826424193,14.5428809 Z M16.7639242,13.3393292 L0.826424193,13.3393292 L0.826424193,10.8179418 C0.826424193,9.96438429 1.60074801,9.27153846 2.55468302,9.27153846 L5.78768452,9.27153846 C5.93336916,9.08761289 6.02317476,8.87333068 6.04512724,8.64833435 C6.02716612,7.97513106 5.7497666,7.33049874 5.25882934,6.81979279 C4.54038456,5.99302058 4.12727881,4.98410849 4.07938249,3.937697 C4.07339545,1.76987527 6.03315316,0.00561836665 8.45790428,0.000261311283 C8.56966236,0.000261311283 8.68341612,0.00383268153 8.79517419,0.010975422 C11.2119426,-0.149736239 13.3173849,1.47345154 13.4969961,3.63591622 C13.5049789,3.72341479 13.5089702,3.81091336 13.5089702,3.89841193 C13.4650653,4.94839478 13.0519595,5.96087825 12.3295234,6.79122183 C11.8425775,7.2983564 11.5651779,7.94120305 11.5432255,8.60904928 C11.5671736,8.83404561 11.6569792,9.04832782 11.8006682,9.23225339 L15.0336697,9.23225339 C15.9876047,9.23225339 16.7619285,9.92509922 16.7619285,10.7786567 L16.7639242,13.3393292 Z M2.0597544,12.1839909 L15.5285983,12.1839909 L15.5285983,10.8179418 C15.5285983,10.6018739 15.3330217,10.4268767 15.0915444,10.4268767 L11.1859988,10.4268767 L10.9944135,10.22688 C10.5813077,9.81260105 10.3258607,9.29296668 10.2639946,8.74118998 C10.2520205,7.81620509 10.6052559,6.91621979 11.2638303,6.20016005 C11.8365904,5.55374204 12.1738603,4.76446922 12.2297394,3.94126837 C12.2037955,2.40557917 10.7928498,1.17702781 9.07656506,1.20024171 C9.00472059,1.2020274 8.93487179,1.20381308 8.86302731,1.20917014 C7.15472528,1.04845848 5.62603445,2.15558325 5.44442757,3.68412972 C5.43444917,3.7698426 5.42846213,3.85555549 5.42846213,3.94126837 C5.47835413,4.7662549 5.81562404,5.55552772 6.39437122,6.20016005 C7.04895425,6.91621979 7.39819823,7.81620509 7.3822328,8.74118998 C7.29442288,9.30546648 7.00305361,9.82688653 6.55202994,10.22688 L6.36044467,10.4268767 L2.55468302,10.4268767 C2.31320575,10.4268767 2.11762911,10.6018739 2.11762911,10.8179418 L2.0597544,12.1839909 Z" id="形状"></path>
                    </g>
                </g>
            </g>
        </g>
    </g>
</svg>