<?xml version="1.0" encoding="UTF-8"?>
<svg width="17px" height="17px" viewBox="0 0 17 17" version="1.1" xmlns="http://www.w3.org/2000/svg" xmlns:xlink="http://www.w3.org/1999/xlink">
    <title>portfolio</title>
    <g id="重置" stroke="none" stroke-width="1" fill="none" fill-rule="evenodd">
        <g id="抵押-暗/状态" transform="translate(-1120.000000, -289.000000)" fill="#D5D7E4" fill-rule="nonzero">
            <g id="portfolio" transform="translate(1120.000000, 289.000000)">
                <path d="M2.93218244,13.2901185 L1.89856298,13.2901185 L1.89856298,14.7571352 L15.5845737,14.7571352 L15.5845737,13.2901185 L14.5509543,13.2901185 L14.5509543,6.62102854 L16.5470624,6.62102854 L16.5470624,3.53823371 L8.74045693,0 L0.933851486,3.53823371 L0.933851486,6.62102854 L2.9299596,6.62102854 L2.9299596,13.2901185 L2.93218244,13.2901185 Z M4.35479846,6.62102854 L6.35979792,6.62102854 L6.35979792,13.2901185 L4.35479846,13.2901185 L4.35479846,6.62102854 Z M9.74073382,6.62102854 L9.74073382,13.2901185 L7.78241395,13.2901185 L7.78241395,6.62102854 L9.74073382,6.62102854 Z M13.1261154,13.2901185 L11.1655727,13.2901185 L11.1655727,6.62102854 L13.1261154,6.62102854 L13.1261154,13.2901185 Z M2.35869035,4.49488422 L8.74045693,1.60204631 L15.1222235,4.49488422 L15.1222235,5.15401185 L2.35869035,5.15401185 L2.35869035,4.49488422 Z M0.711567732,15.5329833 L16.7671233,15.5329833 L16.7671233,17 L0.711567732,17 L0.711567732,15.5329833 Z" id="形状"></path>
                <path d="M8.26712329,3.77777778 C8.26712329,4.29938004 8.68996547,4.72222222 9.21156773,4.72222222 C9.73317,4.72222222 10.1560122,4.29938004 10.1560122,3.77777778 C10.1560122,3.25617551 9.73317,2.83333333 9.21156773,2.83333333 C8.68996547,2.83333333 8.26712329,3.25617551 8.26712329,3.77777778 Z" id="路径"></path>
            </g>
        </g>
    </g>
</svg>