<?xml version="1.0" encoding="UTF-8"?>
<svg width="20px" height="20px" viewBox="0 0 20 20" version="1.1" xmlns="http://www.w3.org/2000/svg" xmlns:xlink="http://www.w3.org/1999/xlink">
    <title>network</title>
    <g id="重置" stroke="none" stroke-width="1" fill="none" fill-rule="evenodd">
        <g id="抵押-暗/状态" transform="translate(-408.000000, -1134.000000)">
            <g id="账号/下拉/修改配置" transform="translate(388.000000, 950.000000)">
                <g id="network" transform="translate(20.000000, 184.000000)">
                    <path d="M2.46521233,13.8175676 C2.72991821,13.8175676 2.90638879,13.6283784 2.90638879,13.3445946 L2.90638879,10.0337838 L9.55882354,10.0337838 L9.55882354,13.3445946 C9.55882354,13.6283784 9.73529412,13.8175676 10,13.8175676 C10.2647059,13.8175676 10.4411765,13.6283784 10.4411765,13.3445946 L10.4411765,10.0337838 L17.0216587,10.0337838 L17.0216587,13.3445946 C17.0216587,13.6283784 17.1981293,13.8175676 17.4628351,13.8175676 C17.727541,13.8175676 17.9040116,13.6283784 17.9040116,13.3445946 L17.9040116,9.56081082 C17.9040116,9.27702704 17.727541,9.08783785 17.4628351,9.08783785 L10.4411765,9.08783783 L10.4411765,6.72297296 C10.4411765,6.43918918 10.2647059,6.25 10,6.25 C9.73529412,6.25 9.55882354,6.43918918 9.55882354,6.72297296 L9.55882354,9.08783783 L2.46521233,9.08783783 C2.20050644,9.08783783 2.02403586,9.27702701 2.02403586,9.5608108 L2.02403586,13.3445946 C2.02403586,13.6283784 2.20050644,13.8175676 2.46521233,13.8175676 Z" id="形状" fill="#FFFFFF" fill-rule="nonzero"></path>
                    <rect id="矩形" stroke="#FFFFFF" x="8" y="0.5" width="4" height="4" rx="1"></rect>
                    <rect id="矩形备份-3" stroke="#FFFFFF" x="8" y="15.5" width="4" height="4" rx="1"></rect>
                    <rect id="矩形备份-4" stroke="#FFFFFF" x="0.5" y="15.5" width="4" height="4" rx="1"></rect>
                    <rect id="矩形备份-5" stroke="#FFFFFF" x="15.5" y="15.5" width="4" height="4" rx="1"></rect>
                </g>
            </g>
        </g>
    </g>
</svg>