<?xml version="1.0" encoding="UTF-8"?>
<svg width="18px" height="18px" viewBox="0 0 18 18" version="1.1" xmlns="http://www.w3.org/2000/svg" xmlns:xlink="http://www.w3.org/1999/xlink">
    <title>sharpicons_connected</title>
    <g id="重置" stroke="none" stroke-width="1" fill="none" fill-rule="evenodd">
        <g id="抵押-暗/状态" transform="translate(-408.000000, -1047.000000)" fill="#FFFFFF" fill-rule="nonzero">
            <g id="账号/下拉/修改配置" transform="translate(388.000000, 950.000000)">
                <g id="状态" transform="translate(20.000000, 96.000000)">
                    <g id="sharpicons_connected" transform="translate(0.000000, 1.000000)">
                        <path d="M17.4375,16.0695569 L9.5625,16.0695569 L9.5625,15.4956452 L9.84375,15.4956452 C9.99908009,15.4956452 10.125,15.3671707 10.125,15.2086894 C10.125,15.050208 9.99908009,14.9217335 9.84375,14.9217335 L9.5625,14.9217335 L9.5625,14.8936118 C11.3057363,14.7611701 12.9443805,13.9943704 14.1800625,12.7328342 C15.555375,11.3227331 16.3125,9.45005922 16.3125,7.46088121 C16.3125,5.47170321 15.555375,3.59902928 14.178375,2.18663255 C12.8062752,0.783635921 10.9425615,-0.00332970445 9,-1.09359399e-05 C7.0590935,-0.00645920818 5.19628541,0.779447177 3.8266875,2.18261517 C2.446875,3.5898467 1.6875,5.46366845 1.6875,7.46088121 C1.6875,9.45809398 2.446875,11.3319157 3.8266875,12.7391473 C5.05951123,13.9999087 6.69656304,14.7648433 8.4375,14.8936118 L8.4375,14.9217335 L8.15625,14.9217335 C8.00091991,14.9217335 7.875,15.050208 7.875,15.2086894 C7.875,15.3671707 8.00091991,15.4956452 8.15625,15.4956452 L8.4375,15.4956452 L8.4375,16.0695569 L0.5625,16.0695569 C0.251839828,16.0695569 0,16.326506 0,16.6434687 C0,16.9604313 0.251839828,17.2173804 0.5625,17.2173804 L17.4375,17.2173804 C17.7481602,17.2173804 18,16.9604313 18,16.6434687 C18,16.326506 17.7481602,16.0695569 17.4375,16.0695569 Z M13.632723,11.6063709 C13.5896023,11.6532343 13.5501625,11.7027304 13.5049383,11.7485407 C13.456033,11.7969837 13.4029209,11.8396347 13.352438,11.8864981 C12.7014196,12.2598254 11.3315465,11.8707014 9.86281116,10.8923626 C10.3650103,10.5106103 10.8619509,10.0783088 11.3436414,9.59598461 C11.8083285,9.13173946 12.2408883,8.63633291 12.6383161,8.11320625 C13.6264127,9.59651117 14.0108185,10.9534429 13.632723,11.6063709 Z M5.94976768,7.33059755 C6.82955559,6.13534998 7.88495489,5.07995068 9.08020246,4.20016277 C10.2754444,5.07995727 11.3308427,6.13535565 12.2106372,7.33059755 C11.3308493,8.52584512 10.27545,9.58124442 9.08020246,10.4610323 C7.88496055,9.58123784 6.82956218,8.52583946 5.94976768,7.33059755 Z M14.4004965,4.20016277 C15.0161553,5.25379488 15.3423628,6.47519868 15.3410758,7.7219019 C15.3410758,8.98871886 15.0097872,10.198472 14.4004965,11.243641 C14.3250288,10.2747573 13.845587,9.05239008 12.9932459,7.7219019 C13.845587,6.39141372 14.3250288,5.16904648 14.4004965,4.20016277 Z M13.5034378,2.92837124 C13.5491361,2.97395705 13.5885311,3.02425862 13.6326536,3.07089238 C14.0108459,3.72062107 13.6263504,5.07142799 12.6398986,6.54798886 C12.2427852,6.02721715 11.8105384,5.53406118 11.3461656,5.07195197 C10.8818167,4.60802063 10.3862092,4.17630642 9.86281116,3.77983022 C10.953791,3.05150531 11.9864663,2.63494538 12.7318204,2.63494538 C12.965039,2.63494538 13.1583373,2.67948323 13.3159175,2.75965137 C13.377899,2.81571667 13.4435574,2.86863812 13.5034378,2.92837124 Z M8.69098887,1.06972014 C9.9550038,1.06972014 11.1646589,1.40482148 12.2106372,2.02173401 C11.2333554,2.09607419 9.99861112,2.57651146 8.69098887,3.41755407 C7.38097719,2.5754019 6.1450382,2.09496463 5.16715898,2.02117923 C6.21983927,1.39802607 7.44264916,1.06786419 8.69098887,1.06972014 Z M4.66106724,2.92417944 C4.7188566,2.86654222 4.78189953,2.81571667 4.84231567,2.76069932 C4.99992301,2.67948323 5.19430538,2.63494538 5.42861495,2.63494538 C6.17357228,2.63494538 7.20642566,3.05150531 8.29759376,3.77983022 C7.77430636,4.17653929 7.278792,4.60842588 6.81450876,5.07247594 C6.3502681,5.53444634 5.91812387,6.02742546 5.52107792,6.54798886 C4.5334053,5.07142799 4.14936877,3.7200971 4.52815173,3.07089238 C4.57333249,3.0226867 4.61378504,2.97133717 4.66106724,2.92417944 Z M2.81933289,7.72160169 C2.81933289,6.45412385 3.15061443,5.24368551 3.7599061,4.20016277 C3.83537392,5.16923394 4.31481654,6.3916806 5.16715898,7.72160169 C4.31426163,9.0521232 3.83537392,10.2745699 3.7599061,11.2430406 C3.15061443,10.198317 2.81933289,8.98907954 2.81933289,7.72160169 Z M4.66076439,11.7545498 C4.61396985,11.7071638 4.57348469,11.6560924 4.5282675,11.6076535 C4.14917917,10.954781 4.53352531,9.59796459 5.52199419,8.11320625 C5.90265986,8.61602335 6.3348521,9.11357534 6.81646779,9.59638506 C7.2801798,10.061684 7.77503625,10.4947778 8.29759376,10.8926528 C6.82540607,11.8740675 5.45153949,12.2615789 4.80272534,11.8835447 C4.75645659,11.8398444 4.70650736,11.8003561 4.66076439,11.7545498 Z M8.99595058,11.243641 C10.3001871,12.0792137 11.5292948,12.5703348 12.5149851,12.6497809 C11.4620641,13.2652756 10.2417497,13.5918291 8.99595058,13.5914677 C7.72657383,13.5914677 6.51609809,13.2597934 5.47150681,12.6503365 C6.45779811,12.571446 7.68991096,12.0808804 8.99595058,11.243641 Z" id="形状"></path>
                    </g>
                </g>
            </g>
        </g>
    </g>
</svg>