<?xml version="1.0" encoding="UTF-8"?>
<svg width="18px" height="17px" viewBox="0 0 18 17" version="1.1" xmlns="http://www.w3.org/2000/svg" xmlns:xlink="http://www.w3.org/1999/xlink">
    <title>wodeqianbao</title>
    <g id="重置" stroke="none" stroke-width="1" fill="none" fill-rule="evenodd">
        <g id="抵押-暗/状态" transform="translate(-408.000000, -1092.000000)" fill="#FFFFFF" fill-rule="nonzero">
            <g id="账号/下拉/修改配置" transform="translate(388.000000, 950.000000)">
                <g id="钱包" transform="translate(20.000000, 140.000000)">
                    <g id="wodeqianbao" transform="translate(0.000000, 2.000000)">
                        <path d="M16.5897436,4.02675585 C16.8153846,4.02675585 17,4.18750135 17,4.38396807 L17,14.7431222 C17,14.939589 16.8153846,15.1003344 16.5897436,15.1003344 L1.41025641,15.1003344 C1.18461538,15.1003344 1,14.939589 1,14.7431222 L1,4.38396807 C1,4.18750135 1.18461538,4.02675585 1.41025641,4.02675585 L16.5897436,4.02675585 M16.4,3.02006689 L1.6,3.02006689 C0.716,3.02006689 0,3.65319262 0,4.434873 L0,14.6922173 C0,15.4738977 0.716,16.1070234 1.6,16.1070234 L16.4,16.1070234 C17.284,16.1070234 18,15.4738977 18,14.6922173 L18,4.434873 C18,3.65319262 17.28,3.02006689 16.4,3.02006689 Z" id="形状"></path>
                        <path d="M0,4.68051151 L0,1.98021641 C0,0.889297187 0.824769874,0 1.83877266,0 L14.2680056,0 C15.2820084,0 16.1067782,0.889297187 16.1067782,1.98021641 L16.1067782,3.4203738 L15.0356485,3.4203738 L15.0356485,1.98021641 C15.0356485,1.48336211 14.692887,1.08011804 14.2680056,1.08011804 L1.8423431,1.08011804 C1.41746165,1.08011804 1.07470014,1.48336211 1.07470014,1.98021641 L1.07470014,4.68051151 L0,4.68051151 Z M17.36,12.2413378 L13.0254951,12.2413378 C11.3795258,12.2413378 10.0406137,10.9487965 10.0406137,9.36102302 C10.0406137,7.7732495 11.3795258,6.48070824 13.0254951,6.48070824 L17.36,6.48070824 L17.36,7.56082628 L13.0254951,7.56082628 C11.9686471,7.56082628 11.1117434,8.36731442 11.1117434,9.36102302 C11.1117434,10.3547316 11.9722176,11.1612198 13.0254951,11.1612198 L17.36,11.1612198 L17.36,12.2413378 L17.36,12.2413378 Z" id="形状"></path>
                    </g>
                </g>
            </g>
        </g>
    </g>
</svg>