<?xml version="1.0" encoding="UTF-8"?>
<svg width="47px" height="36px" viewBox="0 0 47 36" version="1.1" xmlns="http://www.w3.org/2000/svg" xmlns:xlink="http://www.w3.org/1999/xlink">
    <title>token/ICON/USDC/60</title>
    <defs>
        <linearGradient x1="-18.107815%" y1="111.646596%" x2="114.121961%" y2="2.80712688%" id="linearGradient-1">
            <stop stop-color="#003EFF" offset="0%"></stop>
            <stop stop-color="#FF257B" offset="51.6366035%"></stop>
            <stop stop-color="#FFB700" offset="100%"></stop>
        </linearGradient>
        <linearGradient x1="-18.107815%" y1="114.806664%" x2="114.121961%" y2="0.387971376%" id="linearGradient-2">
            <stop stop-color="#003EFF" offset="0%"></stop>
            <stop stop-color="#FF257B" offset="51.6366035%"></stop>
            <stop stop-color="#FFB700" offset="100%"></stop>
        </linearGradient>
        <linearGradient x1="15.0062463%" y1="88.7963945%" x2="92.2400945%" y2="0%" id="linearGradient-3">
            <stop stop-color="#3A39E1" offset="0%"></stop>
            <stop stop-color="#FF2C75" offset="51.5686361%"></stop>
            <stop stop-color="#FF8828" offset="100%"></stop>
        </linearGradient>
    </defs>
    <g id="token/ICON/USDC/60" stroke="none" stroke-width="1" fill="none" fill-rule="evenodd">
        <g id="token图标" transform="translate(1.000000, 1.000000)">
            <path d="M12.0540097,0.163352248 C10.5116216,0.665991537 9.06360854,1.37634424 7.74328708,2.26122318 M6.09450062,3.51318649 C4.37224636,4.98870823 2.94150241,6.79241044 1.90006508,8.82687696 C0.685113208,11.2003072 0,13.8878032 0,16.7346939 C0,19.2253624 0.524387837,21.5940296 1.46918689,23.7371232 C3.15743863,27.5665951 6.18805286,30.675816 9.9677916,32.4738539 M17.5,34.1666667 C22.3244797,34.1666667 26.6929835,32.221991 29.8586074,29.0766402 C30.2066589,28.7308177 32.3300495,29.5236462 32.5856936,29.1734748 C32.7778613,28.9102509 33.7493208,27.5004436 33.9267684,27.2263805 C34.1725673,26.8467507 32.694471,25.4008661 32.9107009,25.0017583 C33.0560638,24.7334537 33.5036348,23.8016246 33.5873378,23.6074743 M34.286579,21.6773595 C34.7508416,20.1103866 35,18.4515242 35,16.7346939 C35,13.9172823 34.3290018,11.2559815 33.1375062,8.90070729 C32.7823114,8.19858041 32.1499291,7.21104952 31.2403593,5.93811461 C31.2403593,5.93811461 31.0196871,6.11016854 30.5783429,6.45427641" id="形状" stroke="url(#linearGradient-1)" stroke-linecap="round" stroke-linejoin="round"></path>
            <ellipse id="椭圆形" stroke="url(#linearGradient-2)" fill="#FFFFFF" cx="17.5" cy="16.7346939" rx="15.25" ry="15.1887755"></ellipse>
            <polygon id="路径_3备份" fill="url(#linearGradient-3)" fill-rule="nonzero" points="18.0466989 8.36734694 15.9117552 11.987283 10.5 11.987283 10.5 25.1016653 16.1251744 25.1016653 16.1251744 13.3977062 18.0478261 10.068792 18.0478261 25.1020408 24.5 25.1020408 24.5 8.36734694"></polygon>
        </g>
        <g id="IOCN/TIME" transform="translate(27.000000, 16.000000)">
            <circle id="椭圆形" stroke="#FFFFFF" stroke-width="1.5" fill="#5597E2" cx="10" cy="10" r="9.25"></circle>
            <text id="60" font-family="PingFangSC-Semibold, PingFang SC" font-size="12" font-weight="500" letter-spacing="-0.5" fill="#FFFFFF">
                <tspan x="3" y="15">60</tspan>
            </text>
        </g>
        <g id="ICON/ALGO" transform="translate(27.000000, 1.000000)">
            <g id="USDC" transform="translate(1.000000, 1.000000)">
                <circle id="椭圆形" fill="#5597E2" cx="9" cy="9" r="9"></circle>
                <g id="编组-23" transform="translate(1.525424, 1.728814)" fill="#FFFFFF" fill-rule="nonzero">
                    <path d="M5.54876538,0.604660253 C5.55455456,0.736029124 5.57367474,0.857730584 5.56992216,0.955239129 C5.58427592,1.06487027 5.54939581,1.14731369 5.39636211,1.192712 C2.89225616,1.93556904 1.11864407,4.43764196 1.11864407,7.21580963 C1.11864407,10.0174209 2.91279839,12.6038391 5.39636211,13.3406022 L5.433,13.3549199 C5.71470205,13.4176959 5.67640276,13.5869709 5.65610795,13.8451931 L5.6504603,13.9345345 C5.63686063,14.24314 5.56675329,14.5895168 5.11679683,14.4204232 L5.12717919,14.4251571 C5.11169918,14.4221673 5.09539809,14.4181487 5.07821416,14.413051 C2.1039655,13.5307235 -1.16769871e-12,10.4976875 -1.16769871e-12,7.21580963 C-1.16769871e-12,3.95315073 2.08821277,1.00726385 5.07821416,0.120263192 C5.10690218,0.111752732 5.13277467,0.10644611 5.15618778,0.104071677 L5.13035668,0.112856237 C5.58031314,-0.056237399 5.53516572,0.296054733 5.54876538,0.604660253 Z" id="形状"></path>
                    <path d="M15.0063925,0.604660253 C15.0121817,0.736029124 15.0313019,0.857730584 15.0275493,0.955239129 C15.041903,1.06487027 15.0070229,1.14731369 14.8539892,1.192712 C12.3498833,1.93556904 10.5762712,4.43764196 10.5762712,7.21580963 C10.5762712,10.0174209 12.3704255,12.6038391 14.8539892,13.3406022 L14.8906271,13.3549199 C15.1723292,13.4176959 15.1340299,13.5869709 15.1137351,13.8451931 L15.1080874,13.9345345 C15.0944878,14.24314 15.0243804,14.5895168 14.5744239,14.4204232 L14.5848063,14.4251571 C14.5693263,14.4221673 14.5530252,14.4181487 14.5358413,14.413051 C11.5615926,13.5307235 9.45762712,10.4976875 9.45762712,7.21580963 C9.45762712,3.95315073 11.5458399,1.00726385 14.5358413,0.120263192 C14.5645293,0.111752732 14.5904018,0.10644611 14.6138149,0.104071677 L14.5879838,0.112856237 C15.0379403,-0.056237399 14.9927928,0.296054733 15.0063925,0.604660253 Z" id="形状" transform="translate(12.292827, 7.266890) scale(-1, 1) translate(-12.292827, -7.266890) "></path>
                </g>
                <path d="M11.0599348,7.25356653 C11.3547489,7.25356653 11.593743,7.01457245 11.593743,6.71975831 C11.593743,6.66788866 11.586183,6.61629593 11.5713389,6.56659568 C11.3252783,5.74500893 10.7112272,5.18690932 9.72918568,4.89229685 C9.7090865,4.78770244 9.7090865,4.49300801 9.72918568,4.26263263 C9.72918568,4.26263263 9.72918568,4.26263263 9.72918568,4.26263263 C9.76024549,3.90662742 9.4968252,3.59284924 9.14081999,3.56178943 C9.12211814,3.56015778 9.10335414,3.5593408 9.08458124,3.55932203 L9.05422807,3.55932203 C8.68145928,3.55932203 8.37927046,3.86151085 8.37927046,4.23427964 L8.37927046,4.89229685 L8.37927046,4.89229685 C7.09340105,5.03146805 6.38464196,5.67413173 6.25299318,6.82028789 C6.1213444,7.96644405 6.53626374,8.73935511 7.49775121,9.13902108 C8.10703921,9.29942282 8.8508507,9.46631258 9.72918568,9.63969038 C11.0466882,9.89975707 10.6288079,11.3639799 10.0161883,11.6266637 C9.77767368,11.7289359 9.16699673,12.0851107 8.03763227,11.7591805 C7.83783715,11.7015204 7.53724567,11.5104027 7.36714588,11.1224057 C7.36152999,11.1095959 7.35617248,11.0954548 7.35107335,11.0799826 C7.24272865,10.7512375 6.93566161,10.5291234 6.58952301,10.5291234 C6.27028275,10.5291234 6.01148738,10.7879188 6.01148738,11.107159 C6.01148738,11.1620114 6.01929495,11.2165845 6.03466623,11.269239 C6.14410324,11.6438803 6.30861586,11.9465047 6.52820409,12.177112 C7.02989532,12.7471857 7.64691744,13.0322226 8.37927046,13.0322226 L8.37927046,13.6640254 C8.37927046,14.0367942 8.68145928,14.3389831 9.05422807,14.3389831 C9.42699687,14.3389831 9.72918568,14.0367942 9.72918568,13.6640254 L9.72918568,13.0322226 L9.72918568,13.0322226 C11.6022126,12.3940073 12.2954586,11.2631632 11.8089237,9.63969038 C11.5195906,9.14722442 11.3352388,8.90295412 11.0415057,8.71117922 C10.5135405,8.36647689 9.90187117,8.31241559 8.78349075,8.15125133 C7.0429002,7.90042346 7.53137059,6.57538045 7.86611225,6.25705038 C8.04896111,6.08316618 8.54961849,5.87667632 9.03404288,5.88340195 C9.43645493,5.88898894 9.82766517,6.07322728 10.0161883,6.25705038 C10.1680023,6.40507949 10.278211,6.57176445 10.3468146,6.75710529 C10.4572434,7.05548998 10.7417714,7.25356653 11.0599348,7.25356653 Z" id="路径-2" fill="#FFFFFF"></path>
            </g>
            <circle id="椭圆形" stroke="#FFFFFF" stroke-width="1.5" cx="10" cy="10" r="9.25"></circle>
        </g>
    </g>
</svg>