<?xml version="1.0" encoding="UTF-8"?>
<svg width="47px" height="36px" viewBox="0 0 47 36" version="1.1" xmlns="http://www.w3.org/2000/svg" xmlns:xlink="http://www.w3.org/1999/xlink">
    <title>token/ICON/YLDY/45</title>
    <defs>
        <linearGradient x1="-18.107815%" y1="111.646596%" x2="114.121961%" y2="2.80712688%" id="linearGradient-1">
            <stop stop-color="#003EFF" offset="0%"></stop>
            <stop stop-color="#FF257B" offset="51.6366035%"></stop>
            <stop stop-color="#FFB700" offset="100%"></stop>
        </linearGradient>
        <linearGradient x1="-18.107815%" y1="114.806664%" x2="114.121961%" y2="0.387971376%" id="linearGradient-2">
            <stop stop-color="#003EFF" offset="0%"></stop>
            <stop stop-color="#FF257B" offset="51.6366035%"></stop>
            <stop stop-color="#FFB700" offset="100%"></stop>
        </linearGradient>
        <linearGradient x1="15.0062463%" y1="88.7963945%" x2="92.2400945%" y2="0%" id="linearGradient-3">
            <stop stop-color="#3A39E1" offset="0%"></stop>
            <stop stop-color="#FF2C75" offset="51.5686361%"></stop>
            <stop stop-color="#FF8828" offset="100%"></stop>
        </linearGradient>
    </defs>
    <g id="token/ICON/YLDY/45" stroke="none" stroke-width="1" fill="none" fill-rule="evenodd">
        <g id="token图标" transform="translate(1.000000, 1.000000)">
            <path d="M12.0540097,0.163352248 C10.5116216,0.665991537 9.06360854,1.37634424 7.74328708,2.26122318 M6.09450062,3.51318649 C4.37224636,4.98870823 2.94150241,6.79241044 1.90006508,8.82687696 C0.685113208,11.2003072 0,13.8878032 0,16.7346939 C0,19.2253624 0.524387837,21.5940296 1.46918689,23.7371232 C3.15743863,27.5665951 6.18805286,30.675816 9.9677916,32.4738539 M17.5,34.1666667 C22.3244797,34.1666667 26.6929835,32.221991 29.8586074,29.0766402 C30.2066589,28.7308177 32.3300495,29.5236462 32.5856936,29.1734748 C32.7778613,28.9102509 33.7493208,27.5004436 33.9267684,27.2263805 C34.1725673,26.8467507 32.694471,25.4008661 32.9107009,25.0017583 C33.0560638,24.7334537 33.5036348,23.8016246 33.5873378,23.6074743 M34.286579,21.6773595 C34.7508416,20.1103866 35,18.4515242 35,16.7346939 C35,13.9172823 34.3290018,11.2559815 33.1375062,8.90070729 C32.7823114,8.19858041 32.1499291,7.21104952 31.2403593,5.93811461 C31.2403593,5.93811461 31.0196871,6.11016854 30.5783429,6.45427641" id="形状" stroke="url(#linearGradient-1)" stroke-linecap="round" stroke-linejoin="round"></path>
            <ellipse id="椭圆形" stroke="url(#linearGradient-2)" fill="#FFFFFF" cx="17.5" cy="16.7346939" rx="15.25" ry="15.1887755"></ellipse>
            <polygon id="路径_3备份" fill="url(#linearGradient-3)" fill-rule="nonzero" points="18.0466989 8.36734694 15.9117552 11.987283 10.5 11.987283 10.5 25.1016653 16.1251744 25.1016653 16.1251744 13.3977062 18.0478261 10.068792 18.0478261 25.1020408 24.5 25.1020408 24.5 8.36734694"></polygon>
        </g>
        <g id="IOCN/TIME" transform="translate(27.000000, 16.000000)">
            <circle id="椭圆形" stroke="#FFFFFF" stroke-width="1.5" fill="#FAC236" cx="10" cy="10" r="9.25"></circle>
            <text id="45" font-family="PingFangSC-Semibold, PingFang SC" font-size="12" font-weight="500" letter-spacing="-0.5" fill="#FFFFFF">
                <tspan x="3" y="15">45</tspan>
            </text>
        </g>
        <g id="ICON/ALGO" transform="translate(27.000000, 1.000000)">
            <g id="DAI" transform="translate(1.000000, 1.000000)">
                <circle id="椭圆形" fill="#FAC236" cx="9" cy="9" r="9"></circle>
                <g id="编组-22" transform="translate(3.966102, 4.779661)" fill="#FFFFFF">
                    <path d="M4.78833009,8.54237288 C6.58725635,8.29257929 7.14716932,7.967734 7.96739716,7.20203111 C8.74661361,6.47222054 9.15255994,5.62313061 9.15255994,4.27118644 C9.15255994,2.90727817 8.74661361,1.95113527 7.96739716,1.23328881 C7.14716932,0.46758592 6.37410392,0 4.78833009,0 L1.22033898,0 L1.22033898,8.54237288 L4.78833009,8.54237288 Z M4.62752327,7.62711864 L2.23728814,7.62711864 L2.23728814,0.915254237 L4.62752327,0.915254237 C5.85190847,0.915254237 6.74612238,1.3600211 7.310165,1.85484403 C7.86045048,2.3375981 8.25579882,3.18498978 8.25579882,4.27118644 C8.25579882,5.3332454 7.86045048,6.06687331 7.310165,6.57376509 C6.74612238,7.06858801 6.04097934,7.62711864 4.62752327,7.62711864 Z" id="D" fill-rule="nonzero"></path>
                    <rect id="矩形" x="0" y="2.74576271" width="10.1694915" height="1.01694915"></rect>
                    <rect id="矩形备份" x="0" y="4.77966102" width="10.1694915" height="1.01694915"></rect>
                </g>
            </g>
            <circle id="椭圆形" stroke="#FFFFFF" stroke-width="1.5" cx="10" cy="10" r="9.25"></circle>
        </g>
    </g>
</svg>