<?xml version="1.0" encoding="UTF-8"?>
<svg width="32px" height="32px" viewBox="0 0 32 32" version="1.1" xmlns="http://www.w3.org/2000/svg" xmlns:xlink="http://www.w3.org/1999/xlink">
    <title>DAI</title>
    <g id="页面-1" stroke="none" stroke-width="1" fill="none" fill-rule="evenodd">
        <g id="画板" transform="translate(-626.000000, -351.000000)">
            <g id="DAI" transform="translate(626.000000, 351.000000)">
                <circle id="椭圆形" fill="#FAC236" cx="16" cy="16" r="16"></circle>
                <g id="编组-22" transform="translate(7.412429, 8.497175)" fill="#FFFFFF">
                    <path d="M8.51258683,15.1864407 C11.710678,14.7423632 12.7060788,14.1648604 14.1642616,12.8036109 C15.5495353,11.5061699 16.2712177,9.99667664 16.2712177,7.59322034 C16.2712177,5.16849452 15.5495353,3.46868493 14.1642616,2.19251344 C12.7060788,0.831263858 11.3317403,0 8.51258683,0 L2.16949153,0 L2.16949153,15.1864407 L8.51258683,15.1864407 Z M8.22670803,13.559322 L3.97740113,13.559322 L3.97740113,1.62711864 L8.22670803,1.62711864 C10.4033928,1.62711864 11.9931064,2.4178153 12.9958489,3.29750049 C13.9741342,4.15572996 14.6769757,5.66220405 14.6769757,7.59322034 C14.6769757,9.48132516 13.9741342,10.7855526 12.9958489,11.6866935 C11.9931064,12.5663787 10.7395188,13.559322 8.22670803,13.559322 Z" id="D" fill-rule="nonzero"></path>
                    <rect id="矩形" x="0" y="4.88135593" width="18.079096" height="1.8079096"></rect>
                    <rect id="矩形备份" x="0" y="8.49717514" width="18.079096" height="1.8079096"></rect>
                </g>
            </g>
        </g>
    </g>
</svg>