<?xml version="1.0" encoding="UTF-8"?>
<svg width="71px" height="40px" viewBox="0 0 71 40" version="1.1" xmlns="http://www.w3.org/2000/svg" xmlns:xlink="http://www.w3.org/1999/xlink">
    <title>编组 12</title>
    <defs>
        <linearGradient x1="50%" y1="0%" x2="50%" y2="100%" id="linearGradient-1">
            <stop stop-color="#6786A4" offset="0%"></stop>
            <stop stop-color="#284583" offset="100%"></stop>
        </linearGradient>
    </defs>
    <g id="页面-1" stroke="none" stroke-width="1" fill="none" fill-rule="evenodd">
        <g id="画板" transform="translate(-466.000000, -72.000000)">
            <g id="编组-12" transform="translate(466.000000, 72.000000)">
                <g id="USDC" transform="translate(31.000000, 0.000000)">
                    <circle id="椭圆形" fill="#5597E2" cx="20" cy="20" r="20"></circle>
                    <g id="编组-23" transform="translate(3.389831, 3.841808)" fill="#FFFFFF" fill-rule="nonzero">
                        <path d="M12.3201936,0.983682286 L12.324858,1.16341113 L12.324858,1.16341113 L12.3305897,1.34368945 L12.3305897,1.34368945 C12.3434581,1.63570032 12.3859672,1.90621626 12.3775979,2.12293184 C12.4092118,2.36706199 12.331356,2.54977428 11.9919158,2.6504711 C6.42723591,4.30126454 2.48587571,9.86142657 2.48587571,16.0351325 C2.48587571,22.2609354 6.47288532,28.0085313 11.9919158,29.6457826 L12.1001254,29.683602 C12.7655511,29.8344849 12.5867185,30.2816897 12.5565784,30.9656322 C12.526357,31.6514223 12.3705629,32.4211486 11.3706596,32.0453849 L11.4087727,32.0586847 C11.3699311,32.0518325 11.328716,32.0419944 11.2849204,32.0290022 C4.6754789,30.0682744 -2.59488601e-12,23.3281945 -2.59488601e-12,16.0351325 C-2.59488601e-12,8.78477939 4.64047281,2.2383641 11.2849204,0.267251537 C11.346618,0.248948593 11.4024555,0.237314007 11.4531502,0.231800591 L11.4007926,0.250791638 C12.2267996,-0.0596218001 12.3019875,0.420640092 12.3201936,0.983682286 Z" id="形状"></path>
                        <path d="M33.3371428,0.983682286 L33.3418072,1.16341113 L33.3418072,1.16341113 L33.3475389,1.34368945 L33.3475389,1.34368945 C33.3604073,1.63570032 33.4029163,1.90621626 33.3945471,2.12293184 C33.4261609,2.36706199 33.3483051,2.54977428 33.0088649,2.6504711 C27.4441851,4.30126454 23.5028249,9.86142657 23.5028249,16.0351325 C23.5028249,22.2609354 27.4898345,28.0085313 33.0088649,29.6457826 L33.1170745,29.683602 C33.7825002,29.8344849 33.6036677,30.2816897 33.5735276,30.9656322 C33.5433061,31.6514223 33.387512,32.4211486 32.3876088,32.0453849 L32.4257219,32.0586847 C32.3868803,32.0518325 32.3456652,32.0419944 32.3018695,32.0290022 C25.6924281,30.0682744 21.0169492,23.3281945 21.0169492,16.0351325 C21.0169492,8.78477939 25.657422,2.2383641 32.3018695,0.267251537 C32.3635671,0.248948593 32.4194046,0.237314007 32.4700994,0.231800591 L32.4177418,0.250791638 C33.2437488,-0.0596218001 33.3189367,0.420640092 33.3371428,0.983682286 Z" id="形状" transform="translate(27.317393, 16.148645) scale(-1, 1) translate(-27.317393, -16.148645) "></path>
                    </g>
                    <path d="M24.5776328,16.1190367 C25.2328007,16.1190367 25.7639192,15.5879182 25.7639192,14.9327503 C25.7639192,14.8174761 25.7471175,14.7028173 25.7140705,14.5923817 C25.1672586,12.7666624 23.802706,11.5264588 21.6204126,10.8717708 C21.5757478,10.6393387 21.5757478,9.98446223 21.6204126,9.47251695 C21.6204126,9.47251695 21.6204126,9.47251695 21.6204126,9.47251695 C21.689436,8.68137609 21.1040441,7.9840752 20.3129033,7.91505182 C20.2713426,7.91142585 20.2296439,7.90961029 20.1879254,7.90960452 L20.1205068,7.90960452 C19.2921317,7.90960452 18.620601,8.58113522 18.620601,9.40951032 L18.620601,10.8717708 L18.620601,10.8717708 C15.7631135,11.1810401 14.1880932,12.6091816 13.8955404,15.1561953 C13.6029876,17.703209 14.5250305,19.4207891 16.6616694,20.3089357 C18.0156427,20.665384 19.6685571,21.0362502 21.6204126,21.4215342 C24.5481959,21.9994602 23.6195731,25.2532886 22.2581963,25.8370304 C21.7281637,26.0643019 20.3711039,26.8558015 17.8614051,26.1315122 C17.4174159,26.0033786 16.7494348,25.5786726 16.3714353,24.7164571 C16.3589571,24.6879943 16.3470529,24.6565741 16.3357228,24.6221964 C16.0949686,23.8916397 15.412589,23.398052 14.6433845,23.398052 C13.9339462,23.398052 13.3588329,23.9731653 13.3588329,24.6826036 C13.3588329,24.8045023 13.376184,24.9257806 13.4103786,25.042785 C13.653572,25.8753067 14.0191525,26.5477946 14.5071202,27.060249 C15.6219896,28.3270794 16.9931499,28.9604946 18.620601,28.9604946 L18.620601,30.364501 C18.620601,31.1928761 19.2921317,31.8644068 20.1205068,31.8644068 C20.9488819,31.8644068 21.6204126,31.1928761 21.6204126,30.364501 L21.6204126,28.9604946 L21.6204126,28.9604946 C25.7826947,27.5422385 27.3232414,25.0292517 26.2420527,21.4215342 C25.5990903,20.3271654 25.1894195,19.7843425 24.5366793,19.3581761 C23.3634233,18.5921709 22.0041582,18.4720346 19.5188683,18.1138918 C15.6508893,17.5564966 16.7363791,14.6119566 17.4802494,13.9045564 C17.8865802,13.5181471 18.9991522,13.0592807 20.0756509,13.0742265 C20.9698999,13.0866421 21.8392559,13.4960606 22.2581963,13.9045564 C22.595568,14.2335172 22.8404797,14.6039372 22.9929314,15.0158166 C23.2383469,15.6788717 23.8706173,16.1190367 24.5776328,16.1190367 Z" id="路径-2" fill="#FFFFFF"></path>
                </g>
                <g id="ETH">
                    <circle id="椭圆形" fill="url(#linearGradient-1)" cx="20" cy="20" r="20"></circle>
                    <polygon id="路径-4" fill="#D8D8D8" points="19.515396 27.6128268 20.1110369 27.955643 20.5136597 27.7842349 20.1129944 36.7020786"></polygon>
                    <polygon id="路径-3" fill="#D8D8D8" points="20.1110369 3.16384181 9.71751412 19.8872316 20.1110369 25.9887006 30.5084746 19.8870056"></polygon>
                    <g id="编组-25" transform="translate(9.717514, 3.163842)">
                        <polygon id="三角形" fill="#DADBDF" points="10.3954802 3.39397797e-16 20.789003 16.7231638 10.3954802 12.2280943"></polygon>
                        <polygon id="三角形备份" fill="#CBD2E1" points="10.3954802 12.2033898 20.789003 16.7231638 10.3954802 22.8248588"></polygon>
                        <polygon id="三角形备份-2" fill="#D8D3D9" points="10.3954802 24.7918012 20.789003 18.7178156 10.3954802 33.5382368"></polygon>
                        <polygon id="三角形" fill="#EEEBED" transform="translate(5.196761, 8.361695) scale(-1, 1) translate(-5.196761, -8.361695) " points="1.04373509e-14 3.39402384e-16 10.3935228 16.7233898 1.04373509e-14 12.2282596"></polygon>
                        <polygon id="三角形备份" fill="#E5E8EE" transform="translate(5.196761, 17.514124) scale(-1, 1) translate(-5.196761, -17.514124) " points="4.81723889e-15 12.2033898 10.3935228 16.7231638 4.81723889e-15 22.8248588"></polygon>
                        <polygon id="三角形备份-2" fill="#E6E0E2" transform="translate(5.196761, 26.128026) scale(-1, 1) translate(-5.196761, -26.128026) " points="7.22585833e-15 24.7918012 10.3935228 18.7178156 7.22585833e-15 33.5382368"></polygon>
                    </g>
                </g>
            </g>
        </g>
    </g>
</svg>