<?xml version="1.0" encoding="UTF-8"?>
<svg width="71px" height="40px" viewBox="0 0 71 40" version="1.1" xmlns="http://www.w3.org/2000/svg" xmlns:xlink="http://www.w3.org/1999/xlink">
    <title>ETH-DAI/纯色</title>
    <g id="页面-1" stroke="none" stroke-width="1" fill="none" fill-rule="evenodd">
        <g id="画板" transform="translate(-244.000000, -94.000000)">
            <g id="ETH-DAI/纯色" transform="translate(244.000000, 94.000000)">
                <g id="DAI" transform="translate(31.000000, 0.000000)">
                    <circle id="椭圆形" fill="#FAC236" cx="20" cy="20" r="20"></circle>
                    <g id="编组-22" transform="translate(9.265537, 10.621469)" fill="#FFFFFF">
                        <path d="M10.6407335,18.9830508 C14.6383474,18.427954 15.8825985,17.7060756 17.705327,16.0045136 C19.4369191,14.3827123 20.3390221,12.4958458 20.3390221,9.49152542 C20.3390221,6.46061815 19.4369191,4.33585616 17.705327,2.7406418 C15.8825985,1.03907982 14.1646754,0 10.6407335,0 L2.71186441,0 L2.71186441,18.9830508 L10.6407335,18.9830508 Z M10.283385,16.9491525 L4.97175141,16.9491525 L4.97175141,2.03389831 L10.283385,2.03389831 C13.004241,2.03389831 14.9913831,3.02226912 16.2448111,4.12187562 C17.4676677,5.19466245 18.3462196,7.07775506 18.3462196,9.49152542 C18.3462196,11.8516564 17.4676677,13.4819407 16.2448111,14.6083669 C14.9913831,15.7079734 13.4243985,16.9491525 10.283385,16.9491525 Z" id="D" fill-rule="nonzero"></path>
                        <rect id="矩形" x="0" y="6.10169492" width="22.5988701" height="2.25988701"></rect>
                        <rect id="矩形备份" x="0" y="10.6214689" width="22.5988701" height="2.25988701"></rect>
                    </g>
                </g>
                <g id="ETH">
                    <circle id="椭圆形" fill="#436191" cx="20" cy="20" r="20"></circle>
                    <polygon id="路径-4" fill="#D8D8D8" points="19.515396 27.6128268 20.1110369 27.955643 20.5136597 27.7842349 20.1129944 36.7020786"></polygon>
                    <polygon id="路径-3" fill="#D8D8D8" points="20.1110369 3.16384181 9.71751412 19.8872316 20.1110369 25.9887006 30.5084746 19.8870056"></polygon>
                    <g id="编组-25" transform="translate(9.717514, 3.163842)">
                        <polygon id="三角形" fill="#DADBDF" points="10.3954802 3.39397797e-16 20.789003 16.7231638 10.3954802 12.2280943"></polygon>
                        <polygon id="三角形备份" fill="#CBD2E1" points="10.3954802 12.2033898 20.789003 16.7231638 10.3954802 22.8248588"></polygon>
                        <polygon id="三角形备份-2" fill="#D8D3D9" points="10.3954802 24.7918012 20.789003 18.7178156 10.3954802 33.5382368"></polygon>
                        <polygon id="三角形" fill="#EEEBED" transform="translate(5.196761, 8.361695) scale(-1, 1) translate(-5.196761, -8.361695) " points="1.04373509e-14 3.39402384e-16 10.3935228 16.7233898 1.04373509e-14 12.2282596"></polygon>
                        <polygon id="三角形备份" fill="#E5E8EE" transform="translate(5.196761, 17.514124) scale(-1, 1) translate(-5.196761, -17.514124) " points="4.81723889e-15 12.2033898 10.3935228 16.7231638 4.81723889e-15 22.8248588"></polygon>
                        <polygon id="三角形备份-2" fill="#E6E0E2" transform="translate(5.196761, 26.128026) scale(-1, 1) translate(-5.196761, -26.128026) " points="7.22585833e-15 24.7918012 10.3935228 18.7178156 7.22585833e-15 33.5382368"></polygon>
                    </g>
                </g>
            </g>
        </g>
    </g>
</svg>