<?xml version="1.0" encoding="UTF-8"?>
<svg width="32px" height="32px" viewBox="0 0 32 32" version="1.1" xmlns="http://www.w3.org/2000/svg" xmlns:xlink="http://www.w3.org/1999/xlink">
    <title>USDC</title>
    <g id="页面-1" stroke="none" stroke-width="1" fill="none" fill-rule="evenodd">
        <g id="画板" transform="translate(-522.000000, -351.000000)">
            <g id="USDC" transform="translate(522.000000, 351.000000)">
                <circle id="椭圆形" fill="#5597E2" cx="16" cy="16" r="16"></circle>
                <g id="编组-23" transform="translate(2.711864, 3.073446)" fill="#FFFFFF" fill-rule="nonzero">
                    <path d="M9.86447179,1.07495156 C9.87469983,1.30704775 9.90833437,1.52216995 9.90220328,1.69497255 C9.92833182,1.89135693 9.86721066,2.03918876 9.59353263,2.12037688 C5.14178873,3.44101163 1.98870056,7.88914125 1.98870056,12.828106 C1.98870056,17.8087483 5.17830826,22.4068251 9.59353263,23.7166261 L9.667,23.7435242 C10.1748258,23.8571031 10.0865036,24.1739165 10.0519823,24.6578738 L10.0452627,24.7725058 C10.0210856,25.3211378 9.89645028,25.9369188 9.0965277,25.6363079 L9.13036093,25.6475295 C9.09831211,25.6420284 9.06423194,25.633969 9.02793629,25.6232017 C3.74038312,24.0546195 -2.07590881e-12,18.6625556 -2.07590881e-12,12.828106 C-2.07590881e-12,7.02782352 3.71237825,1.79069128 9.02793629,0.213801229 C9.07831381,0.198856457 9.12380757,0.189469008 9.16502777,0.185173443 L9.1206341,0.200633311 C9.92055669,-0.0999775982 9.84029461,0.526319526 9.86447179,1.07495156 Z" id="形状"></path>
                    <path d="M26.6780311,1.07495156 C26.6882592,1.30704775 26.7218937,1.52216995 26.7157626,1.69497255 C26.7418911,1.89135693 26.68077,2.03918876 26.407092,2.12037688 C21.9553481,3.44101163 18.8022599,7.88914125 18.8022599,12.828106 C18.8022599,17.8087483 21.9918676,22.4068251 26.407092,23.7166261 L26.4805593,23.7435242 C26.9883852,23.8571031 26.9000629,24.1739165 26.8655416,24.6578738 L26.8588221,24.7725058 C26.8346449,25.3211378 26.7100096,25.9369188 25.910087,25.6363079 L25.9439203,25.6475295 C25.9118714,25.6420284 25.8777913,25.633969 25.8414956,25.6232017 C20.5539424,24.0546195 16.8135593,18.6625556 16.8135593,12.828106 C16.8135593,7.02782352 20.5259376,1.79069128 25.8414956,0.213801229 C25.8918731,0.198856457 25.9373669,0.189469008 25.9785871,0.185173443 L25.9341934,0.200633311 C26.734116,-0.0999775982 26.6538539,0.526319526 26.6780311,1.07495156 Z" id="形状" transform="translate(21.853914, 12.918916) scale(-1, 1) translate(-21.853914, -12.918916) "></path>
                </g>
                <path d="M19.6621062,12.8952294 C20.1862406,12.8952294 20.6111354,12.4703346 20.6111354,11.9462002 C20.6111354,11.8539809 20.597694,11.7622539 20.5712564,11.6739053 C20.1338069,10.2133299 19.0421648,9.22116704 17.2963301,8.69741663 C17.2605982,8.511471 17.2605982,7.98756979 17.2963301,7.57801356 C17.2963301,7.57801356 17.2963301,7.57801356 17.2963301,7.57801356 C17.3515488,6.94510087 16.8832353,6.38726016 16.2503226,6.33204146 C16.2170741,6.32914068 16.1837151,6.32768823 16.1503403,6.32768362 L16.0964055,6.32768362 C15.4337054,6.32768362 14.8964808,6.86490818 14.8964808,7.52760826 L14.8964808,8.69741663 L14.8964808,8.69741663 C12.6104908,8.94483209 11.3504746,10.0873453 11.1164323,12.1249562 C10.88239,14.1625672 11.6200244,15.5366313 13.3293355,16.2471486 C14.4125142,16.5323072 15.7348457,16.8290002 17.2963301,17.1372273 C19.6385567,17.5995681 18.8956585,20.2026309 17.806557,20.6696243 C17.382531,20.8514415 16.2968831,21.4846412 14.289124,20.9052097 C13.9339327,20.8027029 13.3995479,20.4629381 13.0971482,19.7731657 C13.0871657,19.7503955 13.0776423,19.7252593 13.0685782,19.6977572 C12.8759749,19.1133118 12.3300712,18.7184416 11.7147076,18.7184416 C11.1471693,18.7184416 10.6870887,19.1785222 10.6870887,19.7460605 C10.6870887,19.8435758 10.7009688,19.9405946 10.7282955,20.0342027 C10.9228502,20.7002317 11.2153171,21.2382305 11.6056962,21.6481992 C12.4975917,22.6616635 13.5945199,23.1683957 14.8964808,23.1683957 L14.8964808,24.2916008 C14.8964808,24.9543009 15.4337054,25.4915254 16.0964055,25.4915254 C16.7591055,25.4915254 17.2963301,24.9543009 17.2963301,24.2916008 L17.2963301,23.1683957 L17.2963301,23.1683957 C20.6261558,22.0337908 21.8585931,20.0234013 20.9936421,17.1372273 C20.4792722,16.2617323 20.1515356,15.827474 19.6293435,15.4865408 C18.6907387,14.8737367 17.6033265,14.7776277 15.6150947,14.4911135 C12.5207115,14.0451973 13.3891033,11.6895652 13.9841996,11.1236451 C14.3092642,10.8145177 15.1993218,10.4474246 16.0605207,10.4593812 C16.7759199,10.4693137 17.4714047,10.7968485 17.806557,11.1236451 C18.0764544,11.3868137 18.2723838,11.6831498 18.3943451,12.0126533 C18.5906775,12.5430974 19.0964939,12.8952294 19.6621062,12.8952294 Z" id="路径-2" fill="#FFFFFF"></path>
            </g>
        </g>
    </g>
</svg>