<?xml version="1.0" encoding="UTF-8"?>
<svg width="73px" height="40px" viewBox="0 0 73 40" version="1.1" xmlns="http://www.w3.org/2000/svg" xmlns:xlink="http://www.w3.org/1999/xlink">
    <title>USDT-ETH/纯色</title>
    <g id="页面-1" stroke="none" stroke-width="1" fill="none" fill-rule="evenodd">
        <g id="画板" transform="translate(-243.000000, -195.000000)">
            <g id="USDT-ETH/纯色" transform="translate(243.857143, 195.000000)">
                <g id="ETH" transform="translate(31.285714, 0.000000)">
                    <circle id="椭圆形" fill="#436191" cx="20" cy="20" r="20"></circle>
                    <polygon id="路径-4" fill="#D8D8D8" points="19.515396 27.6128268 20.1110369 27.955643 20.5136597 27.7842349 20.1129944 36.7020786"></polygon>
                    <polygon id="路径-3" fill="#D8D8D8" points="20.1110369 3.16384181 9.71751412 19.8872316 20.1110369 25.9887006 30.5084746 19.8870056"></polygon>
                    <g id="编组-25" transform="translate(9.717514, 3.163842)">
                        <polygon id="三角形" fill="#DADBDF" points="10.3954802 3.39397797e-16 20.789003 16.7231638 10.3954802 12.2280943"></polygon>
                        <polygon id="三角形备份" fill="#CBD2E1" points="10.3954802 12.2033898 20.789003 16.7231638 10.3954802 22.8248588"></polygon>
                        <polygon id="三角形备份-2" fill="#D8D3D9" points="10.3954802 24.7918012 20.789003 18.7178156 10.3954802 33.5382368"></polygon>
                        <polygon id="三角形" fill="#EEEBED" transform="translate(5.196761, 8.361695) scale(-1, 1) translate(-5.196761, -8.361695) " points="1.04373509e-14 3.39402384e-16 10.3935228 16.7233898 1.04373509e-14 12.2282596"></polygon>
                        <polygon id="三角形备份" fill="#E5E8EE" transform="translate(5.196761, 17.514124) scale(-1, 1) translate(-5.196761, -17.514124) " points="4.81723889e-15 12.2033898 10.3935228 16.7231638 4.81723889e-15 22.8248588"></polygon>
                        <polygon id="三角形备份-2" fill="#E6E0E2" transform="translate(5.196761, 26.128026) scale(-1, 1) translate(-5.196761, -26.128026) " points="7.22585833e-15 24.7918012 10.3935228 18.7178156 7.22585833e-15 33.5382368"></polygon>
                    </g>
                </g>
                <g id="USDT">
                    <circle id="椭圆形" fill="#379279" cx="20" cy="20" r="20"></circle>
                    <g id="编组-24" transform="translate(7.005650, 8.587571)" fill="#FFFFFF">
                        <polygon id="T" fill-rule="nonzero" points="15.6564972 12.7223294 15.6564972 5.1687672 22.8429379 5.1687672 22.8429379 -7.22585833e-15 3.1819209 -7.22585833e-15 3.1819209 5.1687672 10.3683616 5.1687672 10.3683616 12.7223294"></polygon>
                        <rect id="矩形" x="10.3954802" y="14.191256" width="5.19774011" height="10.3954802"></rect>
                        <path d="M12.8813559,7.86357236 C19.9955324,7.86357236 25.7627119,9.38125117 25.7627119,11.2534029 C25.7627119,13.1255546 19.9955324,14.6432334 12.8813559,14.6432334 C5.76717949,14.6432334 0,13.1255546 0,11.2534029 C0,9.38125117 5.76717949,7.86357236 12.8813559,7.86357236 Z M12.8813559,8.08956106 C6.64085028,8.08956106 0.903954802,9.35429341 0.903954802,10.9144198 C0.903954802,12.4745462 6.64085028,13.7392786 12.8813559,13.7392786 C19.1218616,13.7392786 24.8587571,12.4745462 24.8587571,10.9144198 C24.8587571,9.35429341 19.1218616,8.08956106 12.8813559,8.08956106 Z" id="形状结合"></path>
                    </g>
                </g>
            </g>
        </g>
    </g>
</svg>